<svg xmlns="http://www.w3.org/2000/svg" version="1.1" width="3180.0686535303576"
	 height="566.5724860300163" viewBox="0 0 3180.0686535303576 566.5724860300163">
			
			<g transform="scale(9.003432676517889) translate(10, 10)">
				<defs id="SvgjsDefs1067"></defs><g id="SvgjsG1068" transform="matrix(1.0553764957959177,0,0,1.0553764957959177,-0.023218613034740473,-29.2560925485244)" fill="#00bbf0"><path xmlns="http://www.w3.org/2000/svg" style="" d="M99.975,59.486c0,1.768-1.429,3.198-3.196,3.198H58.779c-0.901,0-1.714-0.371-2.296-0.975  l-25.08-25.901L5.478,61.748c-0.58,0.58-1.378,0.937-2.261,0.937c-1.766,0-3.195-1.431-3.195-3.198c0-0.883,0.358-1.682,0.935-2.259  L29.18,28.989c0.579-0.577,1.379-0.937,2.261-0.937c0.901,0,1.715,0.373,2.295,0.973l7.348,7.592h19.7v-8.896h8.479v8.896H79.55  c0.957,0,1.818,0.423,2.405,1.089l17.229,19.673C99.677,57.943,99.975,58.683,99.975,59.486z M22.589,58.375h6.974v-6.978h-6.974  V58.375z M33.104,58.375h6.973v-6.978h-6.973V58.375z M22.589,68.361h6.974v-6.978h-6.974V68.361z M33.104,68.397h6.973v-6.979  h-6.973V68.397z" fill="#00bbf0"></path></g><g id="SvgjsG1069" transform="matrix(2.108520681242376,0,0,2.108520681242376,110.16249250089781,-5.090818260515972)" fill="#005792"><path d="M3.76 5.640000000000001 l0 14.36 l-1.94 0 l0 -14.36 l1.94 0 z M20.78 20 l-1.88 0 l0 -8.48 c0 -0.42 0.04 -2.24 0.04 -3.58 l-0.04 0 l-4.04 12.06 l-1.92 0 l-4.04 -12.04 l-0.04 0 c0 1.32 0.04 3.14 0.04 3.56 l0 8.48 l-1.88 0 l0 -14.36 l2.78 0 l4.1 12.14 l0.04 0 l4.08 -12.14 l2.76 0 l0 14.36 z M37.44 20 l-1.88 0 l0 -8.48 c0 -0.42 0.04 -2.24 0.04 -3.58 l-0.04 0 l-4.04 12.06 l-1.92 0 l-4.04 -12.04 l-0.04 0 c0 1.32 0.04 3.14 0.04 3.56 l0 8.48 l-1.88 0 l0 -14.36 l2.78 0 l4.1 12.14 l0.04 0 l4.08 -12.14 l2.76 0 l0 14.36 z M51.66 12.82 c0 -3.38 -1.88 -5.84 -5 -5.84 s-5 2.46 -5 5.84 s1.88 5.84 5 5.84 s5 -2.46 5 -5.84 z M53.66 12.82 c0 3.1 -1.64 7.56 -7 7.56 s-7 -4.46 -7 -7.56 s1.64 -7.56 7 -7.56 s7 4.46 7 7.56 z"></path></g><g id="SvgjsG1070" transform="matrix(1.967142684330406,0,0,1.967142684330406,225.1314302006851,-3.2127129254806235)" fill="#005792"><path d="M12.36 5.699999999999999 l0.58 0 l0 14.3 l-0.58 0 l0 -13 l-3.56 7.16 l-0.66 0 l-3.56 -7.16 l0 13 l-0.58 0 l0 -14.3 l0.58 0 l3.88 7.8 z M20.94 20 l-0.56 -2.26 l-5.48 0 l-0.56 2.26 l-0.6 0 l3.54 -14.3 l0.72 0 l3.54 14.3 l-0.6 0 z M15.040000000000001 17.14 l5.2 0 l-2.6 -10.44 z M28.9 5.699999999999999 l0.58 0 l0 14.3 l-0.58 0 l0 -2.58 c-0.1 -4.58 -2.44 -8.6 -5.98 -11.02 l0 13.6 l-0.58 0 l0 -14.3 l0.58 0 c2.86 1.82 5 4.64 5.98 7.98 l0 -7.98 z M37.480000000000004 20 l-0.56 -2.26 l-5.48 0 l-0.56 2.26 l-0.6 0 l3.54 -14.3 l0.72 0 l3.54 14.3 l-0.6 0 z M31.580000000000002 17.14 l5.2 0 l-2.6 -10.44 z M43.84 10.22 l1.16 0 l0 9.78 l-0.58 0 c-3.94 0 -7.14 -3.22 -7.14 -7.16 s3.2 -7.14 7.14 -7.14 l0.58 0 l0 0.58 l-0.58 0 c-3.62 0 -6.56 2.94 -6.56 6.56 s2.94 6.56 6.56 6.56 l0 -8.58 l-0.58 0 l0 -0.6 z M48.68 6.300000000000001 l-2.3 0 l0 3.94 l2.3 0 l0 0.6 l-2.3 0 l0 8.56 l2.3 0 l0 0.6 l-2.88 0 l0 -14.3 l2.88 0 l0 0.6 z M54.94 10.58 c0 1.86 -1.02 3.48 -2.54 4.3 l2.54 5.12 l-0.66 0 l-2.42 -4.88 c-0.52 0.22 -1.1 0.34 -1.7 0.34 l-0.1 0 l0 4.54 l-0.58 0 l0 -14.3 l0.68 0 c2.64 0 4.78 2.18 4.78 4.88 z M50.059999999999995 6.279999999999999 l0 8.6 l0.1 0 c2.32 0 4.2 -1.94 4.2 -4.3 c0 -2.38 -1.88 -4.3 -4.2 -4.3 l-0.1 0 z"></path></g>
			</g>
		</svg>
	